<mxfile host="app.diagrams.net" modified="2021-11-25T01:32:19.177Z" agent="5.0 (Windows NT 10.0; Win64; x64) AppleWebKit/537.36 (KHTML, like Gecko) Chrome/96.0.4664.55 Safari/537.36 Edg/96.0.1054.34" etag="kN6yBmjKmjMMnSBvXvPM" version="15.8.6" type="github">
  <diagram id="hp4ZRXiw3dxKqSJ8gFgZ" name="第 1 页">
    <mxGraphModel dx="2370" dy="1375" grid="1" gridSize="10" guides="1" tooltips="1" connect="1" arrows="1" fold="1" page="1" pageScale="1" pageWidth="827" pageHeight="1169" math="0" shadow="0">
      <root>
        <mxCell id="0" />
        <mxCell id="1" parent="0" />
        <mxCell id="8ud5yvN5_ogS2cvak7CM-2" value="" style="rounded=0;whiteSpace=wrap;html=1;" parent="1" vertex="1">
          <mxGeometry x="90" y="121" width="1500" height="750" as="geometry" />
        </mxCell>
        <mxCell id="8ud5yvN5_ogS2cvak7CM-3" value="" style="rounded=0;whiteSpace=wrap;html=1;" parent="1" vertex="1">
          <mxGeometry x="296" y="121" width="530" height="230" as="geometry" />
        </mxCell>
        <mxCell id="8ud5yvN5_ogS2cvak7CM-4" value="" style="rounded=0;whiteSpace=wrap;html=1;" parent="1" vertex="1">
          <mxGeometry x="254" y="206" width="614" height="60" as="geometry" />
        </mxCell>
        <mxCell id="8ud5yvN5_ogS2cvak7CM-6" value="" style="rounded=0;whiteSpace=wrap;html=1;rotation=15;" parent="1" vertex="1">
          <mxGeometry x="869" y="260" width="416" height="60" as="geometry" />
        </mxCell>
        <mxCell id="8ud5yvN5_ogS2cvak7CM-7" value="键盘鼠标工作区" style="rounded=0;whiteSpace=wrap;html=1;fontSize=28;verticalAlign=bottom;" parent="1" vertex="1">
          <mxGeometry x="157" y="471" width="900" height="400" as="geometry" />
        </mxCell>
        <mxCell id="8ud5yvN5_ogS2cvak7CM-8" value="置物架" style="rounded=0;whiteSpace=wrap;html=1;fontSize=28;" parent="1" vertex="1">
          <mxGeometry x="1290" y="121" width="300" height="750" as="geometry" />
        </mxCell>
        <mxCell id="8ud5yvN5_ogS2cvak7CM-10" value="笔记本" style="rounded=0;whiteSpace=wrap;html=1;fontSize=28;" parent="1" vertex="1">
          <mxGeometry x="1315" y="551" width="250" height="320" as="geometry" />
        </mxCell>
        <mxCell id="NtZdj_i_4V98ALXTqe8c-1" value="主键盘" style="rounded=0;whiteSpace=wrap;html=1;verticalAlign=middle;fontSize=22;" parent="1" vertex="1">
          <mxGeometry x="403.5" y="471" width="315" height="130" as="geometry" />
        </mxCell>
        <mxCell id="NtZdj_i_4V98ALXTqe8c-2" value="小键盘" style="rounded=0;whiteSpace=wrap;html=1;verticalAlign=middle;fontSize=22;" parent="1" vertex="1">
          <mxGeometry x="912" y="471" width="100" height="130" as="geometry" />
        </mxCell>
        <mxCell id="ktbQQdFhl_G87-LKTQdx-2" value="" style="rounded=0;whiteSpace=wrap;html=1;" parent="1" vertex="1">
          <mxGeometry x="112" y="121" width="45" height="490" as="geometry" />
        </mxCell>
      </root>
    </mxGraphModel>
  </diagram>
</mxfile>
